# xmcd
#
# Track frame offsets:
#	180
#	19877
#	39899
#	62171
#	82483
#	102631
#	123708
#	144933
#	158231
#	176909
#	201754
#	219756
#	239104
#	259880
#	277375
#
# Disc length: 3995 seconds
#
# Revision: 0
# Processed by: cddbd v1.5.1PL2 Copyright (c) Steve Scherf et al.
# Submitted via: SynApp - FreeCDDB Version: 2.0
#
DISCID=ef0f990f
DTITLE=Diverse - Merengue Vol.2
DYEAR=1900
DGENRE=Latin
TTITLE0=Fernando Villanova - Neceuto Tenerla
TTITLE1=Willy and Los Vecino - Porque Me Amnste
TTITLE2=Kinito Mendez - El Brule Del Sun Sun
TTITLE3=Sergio Vargas - Que Te Has Crudo
TTITLE4=Los Ilegales - El Taqiu Taqiu
TTITLE5=Oro Solida - Marin Se Fue
TTITLE6=Sandy and Papo - La Fiesta
TTITLE7=Freddy Gerado - El Pollito
TTITLE8=Rockabando - Aceptame Comt Soy
TTITLE9=Projecto Uno - Latino
TTITLE10=Tono Rosario - Seguire
TTITLE11=Willy and Los Vecintoz - Quizas
TTITLE12=Proyecto Uno - Pumpin
TTITLE13=Freddy Gerardo - El Maco Pempen
TTITLE14=Kinito Mendez - El Decrete
EXTD=
EXTT0=
EXTT1=
EXTT2=
EXTT3=
EXTT4=
EXTT5=
EXTT6=
EXTT7=
EXTT8=
EXTT9=
EXTT10=
EXTT11=
EXTT12=
EXTT13=
EXTT14=
PLAYORDER=
